# File generated by ImageToStl.com - Free Image and 3D model conversion tools

mtllib keyboard.mtl

# defaultMaterial_0
o obj1
v -0.15822922 0.0018674192 0.0053174603
v -0.15822922 -9.701347E-05 0.056931417
v 0.15822922 -9.701347E-05 0.056931417
v 0.15822922 0.0018674192 0.0053174603
v 0.15822922 0.009004078 -0.05694949
v -0.15822922 0.009004078 -0.05694949
v 0.1613405 -0.015111122 0.06004045
v 0.1613405 -0.013028358 0.00531746
v 0.1613405 -0.0055374294 -0.06004045
v -0.1613405 -0.015111122 0.06004045
v -0.1613405 -0.0055374294 -0.06004045
v -0.1613405 -0.013028358 0.00531746
v 0.13611798 0.0085228905 0.04062215
v 0.13611798 0.008522891 0.024255285
v 0.124117315 0.008522891 0.024255285
v 0.124117315 0.0085228905 0.04062215
v 0.15513809 -0.0008290482 0.038726885
v 0.15324299 0.0085228905 0.04062215
v 0.15324299 0.0085228905 0.052494556
v 0.15513809 -0.0008290489 0.054389823
v 0.10646746 0.0085228905 0.052494556
v 0.10457236 -0.0008290489 0.054389823
v 0.10646746 0.0085228905 0.04062215
v 0.10457236 -0.0008290482 0.038726885
v 0.12211734 -0.0008290475 0.022360018
v 0.12211734 -0.0008290482 0.038726885
v 0.13811795 -0.0008290482 0.038726885
v 0.13811795 -0.0008290475 0.022360018
v 0.15528151 -0.0003224215 0.005618296
v 0.15338625 0.009273513 0.0044591776
v 0.1066109 0.009273513 0.0044591776
v 0.10471563 -0.0003224215 0.005618296
v 0.15528151 0.0034933942 -0.026707178
v 0.15338625 0.0125321895 -0.02364929
v 0.10471563 0.0034933942 -0.026707178
v 0.1066109 0.0125321895 -0.02364929
v 0.15528151 0.0044864616 -0.037425674
v 0.15338625 0.013976704 -0.038418725
v 0.1066109 0.013976704 -0.038418725
v 0.10471563 0.0044864616 -0.037425674
v 0.15528151 0.0059830565 -0.053016976
v 0.15338625 0.015111121 -0.050236918
v 0.10471563 0.0059830565 -0.053016976
v 0.1066109 0.015111121 -0.050236918
v 0.10051965 0.0044864616 -0.037425674
v 0.09862438 0.013976704 -0.038418725
v 0.034200154 0.013976704 -0.038418725
v 0.032305047 0.0044864616 -0.037425674
v 0.10051965 0.0059830565 -0.053016976
v 0.09862438 0.015111121 -0.050236918
v 0.032305047 0.0059830565 -0.053016976
v 0.034200154 0.015111121 -0.050236918
v 0.023978103 0.0044864616 -0.037425674
v 0.022082996 0.013976704 -0.038418725
v -0.042341236 0.013976704 -0.038418725
v -0.04423634 0.0044864616 -0.037425674
v 0.023978103 0.0059830565 -0.053016976
v 0.022082996 0.015111121 -0.050236918
v -0.04423634 0.0059830565 -0.053016976
v -0.042341236 0.015111121 -0.050236918
v -0.052757055 0.0044864616 -0.037425674
v -0.054652322 0.013976704 -0.038418725
v -0.11907639 0.013976704 -0.038418725
v -0.120971665 0.0044864616 -0.037425674
v -0.052757055 0.0059830565 -0.053016976
v -0.054652322 0.015111121 -0.050236918
v -0.120971665 0.0059830565 -0.053016976
v -0.11907639 0.015111121 -0.050236918
v -0.13935125 0.0044864616 -0.037425674
v -0.14124651 0.013976704 -0.038418725
v -0.15311892 0.013976704 -0.038418725
v -0.15501419 0.0044864616 -0.037425674
v -0.13935125 0.0059830565 -0.053016976
v -0.14124651 0.015111121 -0.050236918
v -0.15501419 0.0059830565 -0.053016976
v -0.15311892 0.015111121 -0.050236918
v 0.09955999 -0.0009910944 0.05448469
v 0.09955999 -0.0005922901 0.022304036
v 0.097480156 0.008505193 0.022303227
v 0.097480156 0.008447077 0.05256151
v -0.15283899 0.008447077 0.05256151
v -0.15479943 -0.0009910944 0.05448469
v -0.15479943 0.0035120933 -0.026760582
v -0.15283899 0.012575009 -0.023570878
v 0.097480156 0.012575009 -0.023570878
v 0.09955999 0.0035120933 -0.026760582
v -0.15283899 0.009197602 0.0052774805
v -0.15283899 0.008505193 0.022303227
v 0.097480156 0.009197602 0.0052774805
v 0.09955999 -0.00038128498 0.00527748
v -0.15479943 -0.0005922901 0.022304036
v -0.15479943 -0.00038128498 0.00527748
v 0.13833044 -0.015093838 -0.05077031
v 0.13833044 -0.0058259396 -0.03229085
v 0.11344045 -0.0058259396 -0.03229085
v 0.11344045 -0.015093838 -0.05077031
v 0.13833044 -0.015093837 -0.054399822
v 0.13833044 -0.0044311504 -0.046067875
v 0.11344045 -0.015093837 -0.054399822
v 0.11344045 -0.0044311504 -0.046067875
v -0.11327668 -0.0058259396 -0.03229085
v -0.13816652 -0.0058259396 -0.03229085
v -0.13816652 -0.015093838 -0.05077031
v -0.11327668 -0.015093838 -0.05077031
v -0.13816652 -0.0044311504 -0.046067875
v -0.13816652 -0.015093837 -0.054399822
v -0.11327668 -0.0044311504 -0.046067875
v -0.11327668 -0.015093837 -0.054399822
vn 0 0.9971075 0.07600554
vn 0 0.9992765 0.038032383
vn 0 0.99349576 0.11386897
vn 0.97884613 0.20445003 0.0077813407
vn 0.97875667 0.20443092 0.015604694
vn 0.9786071 0.20440003 0.023427103
vn 0 0.20277008 0.97922647
vn 0 0.20791903 -0.97814614
vn -0.97875667 0.20443092 0.015604694
vn -0.97884613 0.20445003 0.0077813407
vn -0.9786071 0.20440003 0.023427103
vn 0 -0.9992765 -0.038032383
vn 0 -0.9971075 -0.07600554
vn 0 -0.99349576 -0.11386897
vn 0 1 -0
vn 0.98007727 0.19861704 -0
vn -0.98007727 0.19861704 -0
vn -0.9778858 0.20913996 -0
vn 0 0.19861704 -0.98007727
vn 0 0.19861704 0.98007727
vn 0.9778859 0.20913897 -0
vn 0 0.11992303 0.99278325
vn 0.9801381 0.19697303 0.023044102
vn 0 0.320466 -0.94726
vn -0.98011976 0.19706295 0.023053294
vn 0 0.99334687 0.11516099
vn 0 0.104061 0.994571
vn 0.98007727 0.19770804 0.018977903
vn 0 0.29135504 -0.9566151
vn -0.98007727 0.19770804 0.018977903
vn 0 0.9954246 0.09555046
vn 0.980077 0.197709 0.018978
vn -0.98007727 0.19770804 0.018978003
vn -0.980077 0.197709 0.018978
vn 0.9756574 0.21929486 0.0015506791
vn 0.97585046 0.2184101 0.0036231116
vn 0 0.1996691 0.97986346
vn 0 0.3319951 -0.94328123
vn 0 0.996913 0.0785143
vn 0 0.9997735 0.02128189
vn 0.97661364 0.21348792 0.02547199
vn 0.97637576 0.21551695 0.015584496
vn -0.9783309 0.20704196 0.0015005697
vn -0.97848123 0.20630604 0.003513111
vn -0.97891355 0.2037379 0.014804392
vn -0.9791125 0.2018879 0.024081789
vn 0 0.9999982 0.0019204305
vn 0 0.9932165 0.116279945
vn 0 -0.89388114 0.44830406
vn 1 0 -0
vn 0 0.61571777 -0.7879667
vn -1 0 -0
vn 0 -1 -0
vt 0.709507 0.149558 
vt 0.039074 0.149558 
vt 0.039074 0.0402113 
vt 0.709507 0.0402113 
vt 0.709507 0.281474 
vt 0.039074 0.281474 
vt 0.7417 0.0324255 
vt 0.7417 0.148359 
vt 0.741336 0.145988 
vt 0.741336 0.284452 
vt 0.0324828 0.0077287 
vt 0.716098 0.00772846 
vt 0.716098 0.312968 
vt 0.0324827 0.312969 
vt 0.00688108 0.148359 
vt 0.00688112 0.0324255 
vt 0.00724469 0.284452 
vt 0.00724472 0.145988 
vt 0.993944 0.383721 
vt 0.994426 0.00458825 
vt 0.930083 0.00450635 
vt 0.929601 0.383639 
vt 0.852789 0.00440812 
vt 0.852307 0.383541 
vt 0.112357 0.531526 
vt 0.159386 0.531526 
vt 0.159386 0.595667 
vt 0.112357 0.595667 
vt 0.263893 0.477571 
vt 0.263893 0.538953 
vt 0.226498 0.531526 
vt 0.226498 0.484998 
vt 0.0431876 0.484998 
vt 0.00579273 0.538953 
vt 0.00579281 0.477571 
vt 0.0431876 0.531526 
vt 0.0899663 0.554208 
vt 0.0860246 0.598491 
vt 0.181859 0.554125 
vt 0.229266 0.558603 
vt 0.0404328 0.558981 
vt 0.233925 0.447603 
vt 0.0357604 0.447603 
vt 0.185779 0.598516 
vt 0.167224 0.633061 
vt 0.104518 0.633061 
vt 0.303476 0.459413 
vt 0.48905 0.459413 
vt 0.482095 0.494886 
vt 0.310431 0.494886 
vt 0.517047 0.48666 
vt 0.516805 0.605321 
vt 0.482095 0.598042 
vt 0.48905 0.633061 
vt 0.303476 0.633061 
vt 0.310431 0.598042 
vt 0.275721 0.605321 
vt 0.275478 0.48666 
vt 0.0336541 0.322778 
vt 0.21895 0.322778 
vt 0.212005 0.357745 
vt 0.0405991 0.357745 
vt 0.246812 0.350832 
vt 0.246812 0.407965 
vt 0.212005 0.401052 
vt 0.21895 0.436018 
vt 0.0336541 0.436018 
vt 0.0405991 0.401052 
vt 0.00579273 0.407965 
vt 0.00579273 0.350832 
vt 0.303336 0.334602 
vt 0.553273 0.334602 
vt 0.546329 0.369564 
vt 0.31028 0.369564 
vt 0.581131 0.362652 
vt 0.581131 0.419778 
vt 0.546329 0.412866 
vt 0.553273 0.447828 
vt 0.303336 0.447828 
vt 0.31028 0.412866 
vt 0.275478 0.419778 
vt 0.275478 0.362652 
vt 0.700458 0.393244 
vt 0.950395 0.393244 
vt 0.943451 0.428206 
vt 0.707402 0.428206 
vt 0.978252 0.421294 
vt 0.978252 0.47842 
vt 0.943451 0.471508 
vt 0.950395 0.50647 
vt 0.700458 0.50647 
vt 0.707402 0.471508 
vt 0.6726 0.47842 
vt 0.6726 0.421294 
vt 0.556491 0.519836 
vt 0.806427 0.519836 
vt 0.799483 0.554798 
vt 0.563435 0.554798 
vt 0.834285 0.547886 
vt 0.834285 0.605012 
vt 0.799483 0.598099 
vt 0.806427 0.633061 
vt 0.556491 0.633061 
vt 0.563435 0.598099 
vt 0.528633 0.605012 
vt 0.528633 0.547886 
vt 0.877436 0.519134 
vt 0.934882 0.519134 
vt 0.927931 0.554131 
vt 0.884387 0.554131 
vt 0.962768 0.547212 
vt 0.962768 0.604395 
vt 0.927931 0.597476 
vt 0.934882 0.632473 
vt 0.877436 0.632473 
vt 0.884387 0.597476 
vt 0.84955 0.604395 
vt 0.84955 0.547212 
vt 0.958689 0.679952 
vt 0.99386 0.672917 
vt 0.99256 0.79005 
vt 0.958689 0.790854 
vt 0.0340357 0.644648 
vt 0.966313 0.644647 
vt 0.0412206 0.679952 
vt 0.966312 0.994207 
vt 0.0340358 0.994206 
vt 0.0412206 0.958992 
vt 0.958689 0.958992 
vt 0.958689 0.853257 
vt 0.0412206 0.853257 
vt 0.0412206 0.790854 
vt 0.994207 0.850651 
vt 0.993192 0.966752 
vt 0.00614102 0.672917 
vt 0.00744407 0.790051 
vt 0.00680813 0.966751 
vt 0.00579273 0.850651 
vt 0.781388 0.293218 
vt 0.781388 0.367584 
vt 0.843155 0.367584 
vt 0.843155 0.293219 
vt 0.771694 0.372445 
vt 0.808228 0.389762 
vt 0.770544 0.367584 
vt 0.770544 0.293218 
vt 0.730114 0.293218 
vt 0.730114 0.367584 
vt 0.771694 0.288357 
vt 0.808228 0.27104 
usemtl mat1
f 4/1/1 1/2/1 2/3/2
f 2/3/2 3/4/2 4/1/1
f 1/2/1 4/1/1 5/5/3
f 5/5/3 6/6/3 1/2/1
f 4/1/5 3/4/4 7/7/4
f 7/7/4 8/8/5 4/1/5
f 5/5/6 4/1/5 8/9/5
f 8/9/5 9/10/6 5/5/6
f 3/4/7 2/3/7 10/11/7
f 10/11/7 7/12/7 3/4/7
f 6/6/8 5/5/8 9/13/8
f 9/13/8 11/14/8 6/6/8
f 2/3/10 1/2/9 12/15/9
f 12/15/9 10/16/10 2/3/10
f 1/2/9 6/6/11 11/17/11
f 11/17/11 12/18/9 1/2/9
f 7/19/12 10/20/12 12/21/13
f 12/21/13 8/22/13 7/19/12
f 8/22/13 12/21/13 11/23/14
f 11/23/14 9/24/14 8/22/13
f 16/25/15 13/26/15 14/27/15
f 14/27/15 15/28/15 16/25/15
f 20/29/16 17/30/16 18/31/16
f 18/31/16 19/32/16 20/29/16
f 19/32/15 13/26/15 16/25/15
f 16/25/15 21/33/15 19/32/15
f 24/34/17 22/35/17 21/33/17
f 21/33/17 23/36/17 24/34/17
f 26/37/18 16/25/18 15/28/18
f 15/28/18 25/38/18 26/37/18
f 16/25/15 23/36/15 21/33/15
f 19/32/15 18/31/15 13/26/15
f 27/39/19 13/26/19 18/31/19
f 18/31/19 17/40/19 27/39/19
f 16/25/19 26/37/19 24/41/19
f 24/41/19 23/36/19 16/25/19
f 20/42/20 19/32/20 21/33/20
f 21/33/20 22/43/20 20/42/20
f 13/26/21 27/39/21 28/44/21
f 28/44/21 14/27/21 13/26/21
f 14/27/19 28/45/19 25/46/19
f 25/46/19 15/28/19 14/27/19
f 32/47/22 29/48/22 30/49/22
f 30/49/22 31/50/22 32/47/22
f 29/51/23 33/52/23 34/53/23
f 34/53/23 30/49/23 29/51/23
f 33/54/24 35/55/24 36/56/24
f 36/56/24 34/53/24 33/54/24
f 35/57/25 32/58/25 31/50/25
f 31/50/25 36/56/25 35/57/25
f 31/50/26 30/49/26 34/53/26
f 34/53/26 36/56/26 31/50/26
f 40/59/27 37/60/27 38/61/27
f 38/61/27 39/62/27 40/59/27
f 37/63/28 41/64/28 42/65/28
f 42/65/28 38/61/28 37/63/28
f 41/66/29 43/67/29 44/68/29
f 44/68/29 42/65/29 41/66/29
f 43/69/30 40/70/30 39/62/30
f 39/62/30 44/68/30 43/69/30
f 39/62/31 38/61/31 42/65/31
f 42/65/31 44/68/31 39/62/31
f 48/71/27 45/72/27 46/73/27
f 46/73/27 47/74/27 48/71/27
f 45/75/32 49/76/32 50/77/32
f 50/77/32 46/73/32 45/75/32
f 49/78/29 51/79/29 52/80/29
f 52/80/29 50/77/29 49/78/29
f 51/81/30 48/82/30 47/74/30
f 47/74/30 52/80/30 51/81/30
f 47/74/31 46/73/31 50/77/31
f 50/77/31 52/80/31 47/74/31
f 56/83/27 53/84/27 54/85/27
f 54/85/27 55/86/27 56/83/27
f 53/87/28 57/88/28 58/89/28
f 58/89/28 54/85/28 53/87/28
f 57/90/29 59/91/29 60/92/29
f 60/92/29 58/89/29 57/90/29
f 59/93/33 56/94/33 55/86/33
f 55/86/33 60/92/33 59/93/33
f 55/86/31 54/85/31 58/89/31
f 58/89/31 60/92/31 55/86/31
f 64/95/27 61/96/27 62/97/27
f 62/97/27 63/98/27 64/95/27
f 61/99/28 65/100/28 66/101/28
f 66/101/28 62/97/28 61/99/28
f 65/102/29 67/103/29 68/104/29
f 68/104/29 66/101/29 65/102/29
f 67/105/34 64/106/34 63/98/34
f 63/98/34 68/104/34 67/105/34
f 63/98/31 62/97/31 66/101/31
f 66/101/31 68/104/31 63/98/31
f 72/107/27 69/108/27 70/109/27
f 70/109/27 71/110/27 72/107/27
f 69/111/28 73/112/28 74/113/28
f 74/113/28 70/109/28 69/111/28
f 73/114/29 75/115/29 76/116/29
f 76/116/29 74/113/29 73/114/29
f 75/117/30 72/118/30 71/110/30
f 71/110/30 76/116/30 75/117/30
f 71/110/31 70/109/31 74/113/31
f 74/113/31 76/116/31 71/110/31
f 80/119/35 77/120/35 78/121/36
f 78/121/36 79/122/36 80/119/35
f 82/123/37 77/124/37 80/119/37
f 80/119/37 81/125/37 82/123/37
f 86/126/38 83/127/38 84/128/38
f 84/128/38 85/129/38 86/126/38
f 89/130/39 87/131/39 88/132/40
f 88/132/40 79/122/40 89/130/39
f 90/133/42 86/134/41 85/129/41
f 85/129/41 89/130/42 90/133/42
f 82/135/43 81/125/43 88/132/44
f 88/132/44 91/136/44 82/135/43
f 83/137/46 92/138/45 87/131/45
f 87/131/45 84/128/46 83/137/46
f 81/125/47 80/119/47 79/122/40
f 79/122/40 88/132/40 81/125/47
f 87/131/39 89/130/39 85/129/48
f 85/129/48 84/128/48 87/131/39
f 90/133/42 89/130/42 79/122/36
f 79/122/36 78/121/36 90/133/42
f 87/131/45 92/138/45 91/136/44
f 91/136/44 88/132/44 87/131/45
f 96/139/49 93/140/49 94/141/49
f 94/141/49 95/142/49 96/139/49
f 93/140/50 97/143/50 98/144/50
f 98/144/50 94/141/50 93/140/50
f 97/145/51 99/146/51 100/147/51
f 100/147/51 98/148/51 97/145/51
f 99/149/52 96/139/52 95/142/52
f 95/142/52 100/150/52 99/149/52
f 99/146/53 97/145/53 93/140/53
f 93/140/53 96/139/53 99/146/53
f 104/139/49 101/142/49 102/141/49
f 102/141/49 103/140/49 104/139/49
f 103/140/52 102/141/52 105/144/52
f 105/144/52 106/143/52 103/140/52
f 106/145/51 105/148/51 107/147/51
f 107/147/51 108/146/51 106/145/51
f 108/149/50 107/150/50 101/142/50
f 101/142/50 104/139/50 108/149/50
f 108/146/53 104/139/53 103/140/53
f 103/140/53 106/145/53 108/146/53
# Vertices: 108, normals: 53, texture coordinates: 150, faces: 144

